<svg width="267" height="255" viewBox="0 0 267 255" fill="none" xmlns="http://www.w3.org/2000/svg">
<path d="M153.02 66.3586C176.371 111.299 117.992 162.207 88.6264 97.606C88.6264 1.40599 63.8598 120.076 16.0957 75.136C-31.6684 30.1959 39.8008 31.2491 88.6264 7.37465C137.452 -16.4998 129.668 21.4184 153.02 66.3586Z" fill="#DB4265"/>
<path d="M191.567 239.762C162.413 219.539 201.474 159.031 232.609 166.384C272.749 175.863 267.636 205.355 263.744 230.985C259.852 256.615 228.01 265.041 191.567 239.762Z" fill="#DB4265"/>
<path d="M115.145 189.205C98.7279 155.781 64.9038 163.809 50.0438 172.001C18.5549 196.578 38.0145 239.762 73.0414 242.571C108.068 245.38 135.665 230.985 115.145 189.205Z" fill="#DB4265"/>
<path d="M218.812 93.0051C198.999 101.712 202.537 58.4808 206.782 35.7766C220.109 37.6491 248.885 44.2029 257.377 55.4379C267.991 69.4817 243.578 82.1212 218.812 93.0051Z" fill="#DB4265"/>
</svg>
