<svg width="735" height="950" viewBox="0 0 735 950" fill="none" xmlns="http://www.w3.org/2000/svg">
<path d="M137.781 550.867C13.1691 596.331 -48.88 819.213 72.4139 893.952C193.708 968.691 340.743 960.306 518.214 917.561C606.513 896.294 694.917 876.244 735.047 917.561L727.31 877.445L696.082 860.195L578.409 816.161L372.933 870.182L122.199 860.195L151.617 671.348L388.321 634.577L548.538 433.927L606.469 189.697L735.047 67.1279V-34.6504H685.22C660.576 -20.592 632.895 -2.62864 617.494 23.5673C582.617 82.8886 541.119 95.7589 496.675 143.432C408.066 238.481 542.55 362.584 456.537 496.507C370.523 630.43 293.545 494.036 137.781 550.867Z" fill="#3F3F3F"/>
<path d="M137.781 550.867C13.1691 596.331 -48.88 819.213 72.4139 893.952C193.708 968.691 340.743 960.306 518.214 917.561C606.513 896.294 694.917 876.244 735.047 917.561L727.31 877.445L696.082 860.195L578.409 816.161L372.933 870.182L122.199 860.195L151.617 671.348L388.321 634.577L548.538 433.927L606.469 189.697L735.047 67.1279V-34.6504H685.22C660.576 -20.592 632.895 -2.62864 617.494 23.5673C582.617 82.8886 541.119 95.7589 496.675 143.432C408.066 238.481 542.55 362.584 456.537 496.507C370.523 630.43 293.545 494.036 137.781 550.867Z" fill="url(#paint0_linear_1186_852)" fill-opacity="0.2"/>
<path d="M643.129 874.722C707.397 874.722 495.133 850.662 495.133 850.662L207.739 896.058L11.7676 805.72C11.7676 805.72 21.2719 850.662 90.0655 891.064C158.859 931.467 297.155 927.587 334.011 925.565C391.942 922.387 420.151 919.001 480.197 905.591C543.81 891.385 578.862 874.722 643.129 874.722Z" fill="#DC6A84"/>
<path d="M163.941 532.329C39.3979 577.765 -66.8968 751.236 51.4579 861.585C136.055 940.459 339.845 917.915 517.219 875.197C605.469 853.943 675.922 875.197 735.005 921.025V-45C729.346 -6.47844 696.139 83.8991 608.583 137.237C499.138 203.909 568.489 344.167 482.523 478.004C396.556 611.842 319.62 475.535 163.941 532.329Z" fill="#DB4265"/>
<path d="M163.941 532.329C39.3979 577.765 -66.8968 751.236 51.4579 861.585C136.055 940.459 339.845 917.915 517.219 875.197C605.469 853.943 675.922 875.197 735.005 921.025V-45C729.346 -6.47844 696.139 83.8991 608.583 137.237C499.138 203.909 568.489 344.167 482.523 478.004C396.556 611.842 319.62 475.535 163.941 532.329Z" fill="url(#paint1_linear_1186_852)" fill-opacity="0.4"/>
<defs>
<linearGradient id="paint0_linear_1186_852" x1="-165.195" y1="865.643" x2="139.868" y2="834.957" gradientUnits="userSpaceOnUse">
<stop stop-color="white"/>
<stop offset="1" stop-color="white" stop-opacity="0"/>
</linearGradient>
<linearGradient id="paint1_linear_1186_852" x1="193.708" y1="60.3186" x2="582.259" y2="622.13" gradientUnits="userSpaceOnUse">
<stop/>
<stop offset="0.870901" stop-color="#B83755" stop-opacity="0.8"/>
</linearGradient>
</defs>
</svg>
