<svg width="812" height="1083" viewBox="0 0 812 1083" fill="none" xmlns="http://www.w3.org/2000/svg">
<path d="M152.214 643.299C14.5489 693.375 -54.0001 938.861 79.9999 1021.18C214 1103.5 376.438 1094.26 572.5 1047.18C670.048 1023.76 767.714 1001.68 812.047 1047.18L803.5 1003L769 984L639 935.5L412 995L135 984L167.5 776L429 735.5L606 514.5L670 245.5L812.047 110.5V-1.60083H757C729.775 13.8834 699.195 33.6686 682.18 62.5214C643.649 127.859 597.804 142.035 548.705 194.543C450.813 299.232 599.385 435.921 504.361 583.426C409.337 730.932 324.295 580.705 152.214 643.299Z" fill="#3F3F3F"/>
<path d="M152.214 643.299C14.5489 693.375 -54.0001 938.861 79.9999 1021.18C214 1103.5 376.438 1094.26 572.5 1047.18C670.048 1023.76 767.714 1001.68 812.047 1047.18L803.5 1003L769 984L639 935.5L412 995L135 984L167.5 776L429 735.5L606 514.5L670 245.5L812.047 110.5V-1.60083H757C729.775 13.8834 699.195 33.6686 682.18 62.5214C643.649 127.859 597.804 142.035 548.705 194.543C450.813 299.232 599.385 435.921 504.361 583.426C409.337 730.932 324.295 580.705 152.214 643.299Z" fill="url(#paint0_linear_353_71)" fill-opacity="0.2"/>
<path d="M710.5 1000C781.5 1000 547 973.5 547 973.5L229.5 1023.5L13 924C13 924 23.5 973.5 99.5 1018C175.5 1062.5 328.283 1058.23 369 1056C433 1052.5 464.163 1048.77 530.5 1034C600.777 1018.35 639.5 1000 710.5 1000Z" fill="#DC6A84"/>
<path d="M181.115 622.882C43.525 672.926 -73.9045 863.991 56.8484 985.531C150.307 1072.4 375.445 1047.57 571.4 1000.52C668.895 977.114 746.728 1000.52 812 1051V-13C805.748 29.4284 769.063 128.972 672.335 187.719C551.425 261.153 628.041 415.636 533.069 563.047C438.097 710.459 353.102 560.328 181.115 622.882Z" fill="#DB4265"/>
<path d="M181.115 622.882C43.525 672.926 -73.9045 863.991 56.8484 985.531C150.307 1072.4 375.445 1047.57 571.4 1000.52C668.895 977.114 746.728 1000.52 812 1051V-13C805.748 29.4284 769.063 128.972 672.335 187.719C551.425 261.153 628.041 415.636 533.069 563.047C438.097 710.459 353.102 560.328 181.115 622.882Z" fill="url(#paint1_linear_353_71)" fill-opacity="0.4"/>
<defs>
<linearGradient id="paint0_linear_353_71" x1="-182.5" y1="990" x2="154.5" y2="956" gradientUnits="userSpaceOnUse">
<stop stop-color="white"/>
<stop offset="1" stop-color="white" stop-opacity="0"/>
</linearGradient>
<linearGradient id="paint1_linear_353_71" x1="214" y1="103" x2="641.5" y2="723" gradientUnits="userSpaceOnUse">
<stop/>
<stop offset="0.870901" stop-color="#B83755" stop-opacity="0.8"/>
</linearGradient>
</defs>
</svg>
