<svg width="565" height="734" viewBox="0 0 565 734" fill="none" xmlns="http://www.w3.org/2000/svg">
<path d="M200.501 202.328C236.001 264.828 300.696 397.777 290.001 496.803C279.306 595.828 170.501 599.328 72.0011 643.328C103.654 643.328 195.812 633.328 237.934 628.328L347.719 477.328L186.501 47.3281C165.001 102.828 165.001 139.828 200.501 202.328Z" fill="#DC6A84"/>
<path d="M200.501 202.328C236.001 264.828 300.696 397.777 290.001 496.803C279.306 595.828 170.501 599.328 72.0011 643.328C103.654 643.328 195.812 633.328 237.934 628.328L347.719 477.328L186.501 47.3281C165.001 102.828 165.001 139.828 200.501 202.328Z" fill="url(#paint0_radial_644_341)" fill-opacity="0.2"/>
<path d="M198.718 189.803C234.218 252.303 317.913 387.778 307.218 486.803C296.523 585.828 193.023 599.328 94.523 643.328C-3.97699 687.328 0.0230103 707.828 0.0230103 733.803H564.935V2.07821C542.264 8.50495 521.708 21.4402 507.718 40.8031C493.61 60.329 502.376 80.4966 486.718 98.8031C452.958 138.274 351.856 150.709 353.718 98.8031C354.292 82.8149 365.751 76.18 367.718 60.303C376.517 -10.7033 232.856 -18.9581 186.218 35.303C146.761 81.2097 163.218 127.303 198.718 189.803Z" fill="#2B2B2B"/>
<path d="M198.718 189.803C234.218 252.303 317.913 387.778 307.218 486.803C296.523 585.828 193.023 599.328 94.523 643.328C-3.97699 687.328 0.0230103 707.828 0.0230103 733.803H564.935V2.07821C542.264 8.50495 521.708 21.4402 507.718 40.8031C493.61 60.329 502.376 80.4966 486.718 98.8031C452.958 138.274 351.856 150.709 353.718 98.8031C354.292 82.8149 365.751 76.18 367.718 60.303C376.517 -10.7033 232.856 -18.9581 186.218 35.303C146.761 81.2097 163.218 127.303 198.718 189.803Z" fill="url(#paint1_linear_644_341)" fill-opacity="0.2"/>
<defs>
<radialGradient id="paint0_radial_644_341" cx="0" cy="0" r="1" gradientUnits="userSpaceOnUse" gradientTransform="translate(-165.463 468.414) rotate(15.2904) scale(765.222 511.552)">
<stop stop-color="white"/>
<stop offset="1" stop-opacity="0"/>
</radialGradient>
<linearGradient id="paint1_linear_644_341" x1="125.501" y1="-133.672" x2="760.623" y2="723.981" gradientUnits="userSpaceOnUse">
<stop stop-color="white"/>
<stop offset="1" stop-color="white" stop-opacity="0"/>
</linearGradient>
</defs>
</svg>
