<svg width="731" height="1297" viewBox="0 0 731 1297" fill="none" xmlns="http://www.w3.org/2000/svg">
<path d="M615.5 125C530.568 219.699 437 264 229 330C21 396 -13.5444 466.039 -22 614.5C-29.3312 743.219 109.5 858 142.5 951C175.5 1044 159.5 1109 142.5 1150.5C125.5 1192 64 1280 1.5 1296C-16.593 1300.63 -5.5 1275.5 0 1248C-16 1193 57 1130.5 57 1130.5L35.5 826L-52.5 633.5L0 369L265.5 198L615.5 125Z" fill="#3F3F3F"/>
<path d="M615.5 125C530.568 219.699 437 264 229 330C21 396 -13.5444 466.039 -22 614.5C-29.3312 743.219 109.5 858 142.5 951C175.5 1044 159.5 1109 142.5 1150.5C125.5 1192 64 1280 1.5 1296C-16.593 1300.63 -5.5 1275.5 0 1248C-16 1193 57 1130.5 57 1130.5L35.5 826L-52.5 633.5L0 369L265.5 198L615.5 125Z" fill="url(#paint0_linear_353_68)" fill-opacity="0.2"/>
<path d="M245.5 247C359.5 228 394 238 422.5 231C422.5 231 365.5 259.5 283.5 266C201.87 272.471 151.951 299.257 111.055 321.202L110.5 321.5C69.5 343.5 12 393.5 12 393.5C12 393.5 134.5 247 245.5 247Z" fill="#DC6A84"/>
<path d="M245.5 247C359.5 228 394 238 422.5 231C422.5 231 365.5 259.5 283.5 266C201.87 272.471 151.951 299.257 111.055 321.202L110.5 321.5C69.5 343.5 12 393.5 12 393.5C12 393.5 134.5 247 245.5 247Z" fill="url(#paint1_radial_353_68)" fill-opacity="0.2"/>
<path d="M517.5 200C392.727 266.313 286.5 230 168 282C49.5 334 -34.0579 436.502 -56.5 583.5C-74.148 699.096 6.5 728 69.5 835.5C118.607 919.294 132.152 989.514 102.5 1082C74.9978 1167.78 53.0042 1206.19 0.5 1236.5L-76.5 720.5V316L-13.5 0.5H730.603C681.548 61.3152 595.654 158.464 517.5 200Z" fill="#DB4265"/>
<path d="M517.5 200C392.727 266.313 286.5 230 168 282C49.5 334 -34.0579 436.502 -56.5 583.5C-74.148 699.096 6.5 728 69.5 835.5C118.607 919.294 132.152 989.514 102.5 1082C74.9978 1167.78 53.0042 1206.19 0.5 1236.5L-76.5 720.5V316L-13.5 0.5H730.603C681.548 61.3152 595.654 158.464 517.5 200Z" fill="url(#paint2_radial_353_68)" fill-opacity="0.4"/>
<defs>
<linearGradient id="paint0_linear_353_68" x1="555" y1="492" x2="-384.5" y2="372.5" gradientUnits="userSpaceOnUse">
<stop stop-color="white"/>
<stop offset="1" stop-opacity="0"/>
</linearGradient>
<radialGradient id="paint1_radial_353_68" cx="0" cy="0" r="1" gradientUnits="userSpaceOnUse" gradientTransform="translate(498.422 310.471) rotate(174.858) scale(386.992 90.776)">
<stop stop-color="white"/>
<stop offset="1" stop-opacity="0"/>
</radialGradient>
<radialGradient id="paint2_radial_353_68" cx="0" cy="0" r="1" gradientUnits="userSpaceOnUse" gradientTransform="translate(204 414.5) rotate(-34.9847) scale(319.173 319.173)">
<stop/>
<stop offset="0.834442" stop-color="#B83755" stop-opacity="0.8"/>
</radialGradient>
</defs>
</svg>
