<svg width="731" height="1296" viewBox="0 0 731 1296" fill="none" xmlns="http://www.w3.org/2000/svg">
<g clip-path="url(#clip0_1147_784)">
<path d="M616 124.5C531.068 219.199 437.5 263.5 229.5 329.5C21.5 395.5 -13.0444 465.539 -21.5 614C-28.8312 742.719 110 857.5 143 950.5C176 1043.5 160 1108.5 143 1150C126 1191.5 64.5 1279.5 2 1295.5C-16.093 1300.13 -5 1275 0.5 1247.5C-15.5 1192.5 57.5 1130 57.5 1130L36 825.5L-52 633L0.5 368.5L266 197.5L616 124.5Z" fill="#3F3F3F"/>
<path d="M616 124.5C531.068 219.199 437.5 263.5 229.5 329.5C21.5 395.5 -13.0444 465.539 -21.5 614C-28.8312 742.719 110 857.5 143 950.5C176 1043.5 160 1108.5 143 1150C126 1191.5 64.5 1279.5 2 1295.5C-16.093 1300.13 -5 1275 0.5 1247.5C-15.5 1192.5 57.5 1130 57.5 1130L36 825.5L-52 633L0.5 368.5L266 197.5L616 124.5Z" fill="url(#paint0_linear_1147_784)" fill-opacity="0.2"/>
<path d="M246 246.5C360 227.5 394.5 237.5 423 230.5C423 230.5 366 259 284 265.5C202.37 271.971 152.451 298.757 111.555 320.702L111 321C70 343 12.5 393 12.5 393C12.5 393 135 246.5 246 246.5Z" fill="#DC6A84"/>
<path d="M246 246.5C360 227.5 394.5 237.5 423 230.5C423 230.5 366 259 284 265.5C202.37 271.971 152.451 298.757 111.555 320.702L111 321C70 343 12.5 393 12.5 393C12.5 393 135 246.5 246 246.5Z" fill="url(#paint1_radial_1147_784)" fill-opacity="0.2"/>
<path d="M518 199.5C393.227 265.813 287 229.5 168.5 281.5C50 333.5 -33.5579 436.002 -56 583C-73.648 698.596 7 727.5 70 835C119.107 918.794 132.652 989.014 103 1081.5C75.4978 1167.28 53.5042 1205.69 1 1236L-76 720V315.5L-13 0H731.103C682.048 60.8152 596.154 157.964 518 199.5Z" fill="#DB4265"/>
<path d="M518 199.5C393.227 265.813 287 229.5 168.5 281.5C50 333.5 -33.5579 436.002 -56 583C-73.648 698.596 7 727.5 70 835C119.107 918.794 132.652 989.014 103 1081.5C75.4978 1167.28 53.5042 1205.69 1 1236L-76 720V315.5L-13 0H731.103C682.048 60.8152 596.154 157.964 518 199.5Z" fill="url(#paint2_radial_1147_784)" fill-opacity="0.4"/>
</g>
<defs>
<linearGradient id="paint0_linear_1147_784" x1="555.5" y1="491.5" x2="-384" y2="372" gradientUnits="userSpaceOnUse">
<stop stop-color="white"/>
<stop offset="1" stop-opacity="0"/>
</linearGradient>
<radialGradient id="paint1_radial_1147_784" cx="0" cy="0" r="1" gradientUnits="userSpaceOnUse" gradientTransform="translate(498.922 309.971) rotate(174.858) scale(386.992 90.776)">
<stop stop-color="white"/>
<stop offset="1" stop-opacity="0"/>
</radialGradient>
<radialGradient id="paint2_radial_1147_784" cx="0" cy="0" r="1" gradientUnits="userSpaceOnUse" gradientTransform="translate(204.5 414) rotate(-34.9847) scale(319.173 319.173)">
<stop/>
<stop offset="0.834442" stop-color="#B83755" stop-opacity="0.8"/>
</radialGradient>
<clipPath id="clip0_1147_784">
<rect width="807" height="1296" fill="white" transform="translate(-76)"/>
</clipPath>
</defs>
</svg>
