<svg width="66" height="60" viewBox="0 0 66 60" fill="none" xmlns="http://www.w3.org/2000/svg">
<g opacity="0.5">
<path d="M41.043 3H44.444C45.346 3 46.2111 3.35309 46.8489 3.98159C47.4867 4.61009 47.845 5.46253 47.845 6.35136V18.0811M58.0481 9.70273C58.946 10.0781 59.8166 10.43 60.6601 10.7584C61.4903 11.1056 62.1466 11.7635 62.4847 12.5874C62.8227 13.4114 62.8148 14.3339 62.4626 15.152L54.6471 33.1623" stroke="#28CCD1" stroke-width="6" stroke-linecap="round" stroke-linejoin="round"/>
<path d="M28.1002 6.18619L28.1153 6.22283L44.862 46.1108L44.8724 46.1353C44.9055 46.2121 44.9064 46.2957 44.8756 46.3726C44.8449 46.4495 44.7798 46.5245 44.6808 46.5697L20.437 56.9765L20.4338 56.9779C20.3989 56.9921 20.36 57.0002 20.3197 57.0004C20.2781 57.0007 20.2379 56.9927 20.2018 56.9779C20.1659 56.9632 20.1362 56.9428 20.1134 56.92C20.0907 56.8973 20.0753 56.8729 20.0658 56.8493L20.0503 56.8116L3.30362 16.9203L3.29314 16.8957C3.2601 16.8189 3.25915 16.7353 3.28993 16.6584C3.31859 16.5867 3.38063 16.5121 3.48479 16.4647L27.733 6.05743C27.7678 6.04331 27.8065 6.03539 27.8466 6.03516C27.8882 6.03492 27.9283 6.04295 27.9643 6.05767C28.0002 6.07236 28.0299 6.09279 28.0526 6.11555C28.0753 6.1382 28.0907 6.16262 28.1002 6.18619Z" stroke="#28CCD1" stroke-width="6" stroke-linecap="round" stroke-linejoin="round"/>
</g>
</svg>
