<svg width="31" height="31" viewBox="0 0 31 31" fill="none" xmlns="http://www.w3.org/2000/svg">
<path d="M28.0844 15.928L16.4594 3.01135C15.9698 2.46627 15.0295 2.46627 14.5399 3.01135L2.91495 15.928C2.74762 16.1135 2.63779 16.3436 2.5988 16.5903C2.55982 16.8371 2.59337 17.0898 2.69536 17.3179C2.90203 17.7841 3.36445 18.0838 3.87465 18.0838H6.45799V27.1255C6.45799 27.468 6.59407 27.7966 6.83631 28.0388C7.07854 28.2811 7.40708 28.4171 7.74965 28.4171H11.6247C11.9672 28.4171 12.2958 28.2811 12.538 28.0388C12.7802 27.7966 12.9163 27.468 12.9163 27.1255V21.9588H18.083V27.1255C18.083 27.468 18.2191 27.7966 18.4613 28.0388C18.7035 28.2811 19.0321 28.4171 19.3747 28.4171H23.2497C23.5922 28.4171 23.9208 28.2811 24.163 28.0388C24.4052 27.7966 24.5413 27.468 24.5413 27.1255V18.0838H27.1247C27.3748 18.0849 27.6199 18.0131 27.8299 17.8773C28.04 17.7415 28.2061 17.5475 28.3078 17.319C28.4095 17.0905 28.4426 16.8373 28.4029 16.5903C28.3632 16.3433 28.2526 16.1132 28.0844 15.928Z" fill="white"/>
</svg>
