<svg aria-hidden="true" xmlns="http://www.w3.org/2000/svg" xmlns:xlink="http://www.w3.org/1999/xlink"><symbol viewBox="0 0 104 54" id="arrow-bottom" xmlns="http://www.w3.org/2000/svg">
<g id="aFrame 173">
<g id="aVector" filter="url(#afilter0_d_761_879)">
<path d="M7 11L52 42L97 11" stroke-width="5" stroke-linecap="round"/>
</g>
</g>
<defs>
<filter id="afilter0_d_761_879" x="0.5" y="8.49976" width="103" height="44.536" filterUnits="userSpaceOnUse" color-interpolation-filters="sRGB">
<feFlood flood-opacity="0" result="BackgroundImageFix"/>
<feColorMatrix in="SourceAlpha" type="matrix" values="0 0 0 0 0 0 0 0 0 0 0 0 0 0 0 0 0 0 127 0" result="hardAlpha"/>
<feOffset dy="4"/>
<feGaussianBlur stdDeviation="2"/>
<feComposite in2="hardAlpha" operator="out"/>
<feColorMatrix type="matrix" values="0 0 0 0 0 0 0 0 0 0 0 0 0 0 0 0 0 0 0.4 0"/>
<feBlend mode="normal" in2="BackgroundImageFix" result="effect1_dropShadow_761_879"/>
<feBlend mode="normal" in="SourceGraphic" in2="effect1_dropShadow_761_879" result="shape"/>
</filter>
</defs>
</symbol><symbol viewBox="0 0 731 1297" id="decor1" xmlns="http://www.w3.org/2000/svg">
<path d="M615.5 125C530.568 219.699 437 264 229 330C21 396 -13.5444 466.039 -22 614.5C-29.3312 743.219 109.5 858 142.5 951C175.5 1044 159.5 1109 142.5 1150.5C125.5 1192 64 1280 1.5 1296C-16.593 1300.63 -5.5 1275.5 0 1248C-16 1193 57 1130.5 57 1130.5L35.5 826L-52.5 633.5L0 369L265.5 198L615.5 125Z"/>
<path d="M615.5 125C530.568 219.699 437 264 229 330C21 396 -13.5444 466.039 -22 614.5C-29.3312 743.219 109.5 858 142.5 951C175.5 1044 159.5 1109 142.5 1150.5C125.5 1192 64 1280 1.5 1296C-16.593 1300.63 -5.5 1275.5 0 1248C-16 1193 57 1130.5 57 1130.5L35.5 826L-52.5 633.5L0 369L265.5 198L615.5 125Z" fill-opacity="0.2"/>
<path d="M245.5 247C359.5 228 394 238 422.5 231C422.5 231 365.5 259.5 283.5 266C201.87 272.471 151.951 299.257 111.055 321.202L110.5 321.5C69.5 343.5 12 393.5 12 393.5C12 393.5 134.5 247 245.5 247Z"/>
<path d="M245.5 247C359.5 228 394 238 422.5 231C422.5 231 365.5 259.5 283.5 266C201.87 272.471 151.951 299.257 111.055 321.202L110.5 321.5C69.5 343.5 12 393.5 12 393.5C12 393.5 134.5 247 245.5 247Z" fill-opacity="0.2"/>
<path d="M517.5 200C392.727 266.313 286.5 230 168 282C49.5 334 -34.0579 436.502 -56.5 583.5C-74.148 699.096 6.5 728 69.5 835.5C118.607 919.294 132.152 989.514 102.5 1082C74.9978 1167.78 53.0042 1206.19 0.5 1236.5L-76.5 720.5V316L-13.5 0.5H730.603C681.548 61.3152 595.654 158.464 517.5 200Z"/>
<path d="M517.5 200C392.727 266.313 286.5 230 168 282C49.5 334 -34.0579 436.502 -56.5 583.5C-74.148 699.096 6.5 728 69.5 835.5C118.607 919.294 132.152 989.514 102.5 1082C74.9978 1167.78 53.0042 1206.19 0.5 1236.5L-76.5 720.5V316L-13.5 0.5H730.603C681.548 61.3152 595.654 158.464 517.5 200Z" fill-opacity="0.4"/>
<defs>
<linearGradient id="bpaint0_linear_353_68" x1="555" y1="492" x2="-384.5" y2="372.5" gradientUnits="userSpaceOnUse">
<stop stop-color="white"/>
<stop offset="1" stop-opacity="0"/>
</linearGradient>
<radialGradient id="bpaint1_radial_353_68" cx="0" cy="0" r="1" gradientUnits="userSpaceOnUse" gradientTransform="translate(498.422 310.471) rotate(174.858) scale(386.992 90.776)">
<stop stop-color="white"/>
<stop offset="1" stop-opacity="0"/>
</radialGradient>
<radialGradient id="bpaint2_radial_353_68" cx="0" cy="0" r="1" gradientUnits="userSpaceOnUse" gradientTransform="translate(204 414.5) rotate(-34.9847) scale(319.173 319.173)">
<stop/>
<stop offset="0.834442" stop-color="#B83755" stop-opacity="0.8"/>
</radialGradient>
</defs>
</symbol><symbol viewBox="0 0 812 1083" id="decor2" xmlns="http://www.w3.org/2000/svg">
<path d="M152.214 643.299C14.5489 693.375 -54.0001 938.861 79.9999 1021.18C214 1103.5 376.438 1094.26 572.5 1047.18C670.048 1023.76 767.714 1001.68 812.047 1047.18L803.5 1003L769 984L639 935.5L412 995L135 984L167.5 776L429 735.5L606 514.5L670 245.5L812.047 110.5V-1.60083H757C729.775 13.8834 699.195 33.6686 682.18 62.5214C643.649 127.859 597.804 142.035 548.705 194.543C450.813 299.232 599.385 435.921 504.361 583.426C409.337 730.932 324.295 580.705 152.214 643.299Z"/>
<path d="M152.214 643.299C14.5489 693.375 -54.0001 938.861 79.9999 1021.18C214 1103.5 376.438 1094.26 572.5 1047.18C670.048 1023.76 767.714 1001.68 812.047 1047.18L803.5 1003L769 984L639 935.5L412 995L135 984L167.5 776L429 735.5L606 514.5L670 245.5L812.047 110.5V-1.60083H757C729.775 13.8834 699.195 33.6686 682.18 62.5214C643.649 127.859 597.804 142.035 548.705 194.543C450.813 299.232 599.385 435.921 504.361 583.426C409.337 730.932 324.295 580.705 152.214 643.299Z" fill-opacity="0.2"/>
<path d="M710.5 1000C781.5 1000 547 973.5 547 973.5L229.5 1023.5L13 924C13 924 23.5 973.5 99.5 1018C175.5 1062.5 328.283 1058.23 369 1056C433 1052.5 464.163 1048.77 530.5 1034C600.777 1018.35 639.5 1000 710.5 1000Z"/>
<path d="M181.115 622.882C43.525 672.926 -73.9045 863.991 56.8484 985.531C150.307 1072.4 375.445 1047.57 571.4 1000.52C668.895 977.114 746.728 1000.52 812 1051V-13C805.748 29.4284 769.063 128.972 672.335 187.719C551.425 261.153 628.041 415.636 533.069 563.047C438.097 710.459 353.102 560.328 181.115 622.882Z"/>
<path d="M181.115 622.882C43.525 672.926 -73.9045 863.991 56.8484 985.531C150.307 1072.4 375.445 1047.57 571.4 1000.52C668.895 977.114 746.728 1000.52 812 1051V-13C805.748 29.4284 769.063 128.972 672.335 187.719C551.425 261.153 628.041 415.636 533.069 563.047C438.097 710.459 353.102 560.328 181.115 622.882Z" fill-opacity="0.4"/>
<defs>
<linearGradient id="cpaint0_linear_353_71" x1="-182.5" y1="990" x2="154.5" y2="956" gradientUnits="userSpaceOnUse">
<stop stop-color="white"/>
<stop offset="1" stop-color="white" stop-opacity="0"/>
</linearGradient>
<linearGradient id="cpaint1_linear_353_71" x1="214" y1="103" x2="641.5" y2="723" gradientUnits="userSpaceOnUse">
<stop/>
<stop offset="0.870901" stop-color="#B83755" stop-opacity="0.8"/>
</linearGradient>
</defs>
</symbol></svg>