<svg width="36" height="36" viewBox="0 0 36 36" fill="none" xmlns="http://www.w3.org/2000/svg">
<path d="M27.5625 0.5H8.4375C3.7776 0.5 0 4.17266 0 8.70312V27.2969C0 31.8273 3.7776 35.5 8.4375 35.5H27.5625C32.2224 35.5 36 31.8273 36 27.2969V8.70312C36 4.17266 32.2224 0.5 27.5625 0.5Z" fill="url(#paint0_radial_1290_1198)"/>
<path d="M27.5625 0.5H8.4375C3.7776 0.5 0 4.17266 0 8.70312V27.2969C0 31.8273 3.7776 35.5 8.4375 35.5H27.5625C32.2224 35.5 36 31.8273 36 27.2969V8.70312C36 4.17266 32.2224 0.5 27.5625 0.5Z" fill="url(#paint1_radial_1290_1198)"/>
<path d="M18.0013 4.32812C14.1822 4.32812 13.7028 4.34439 12.2029 4.4107C10.7058 4.47742 9.68386 4.70779 8.78977 5.0459C7.86473 5.39508 7.08019 5.86225 6.29859 6.6224C5.5163 7.38242 5.03578 8.14518 4.6755 9.0441C4.32675 9.91363 4.08952 10.9076 4.02216 12.3624C3.95508 13.8208 3.9375 14.287 3.9375 18.0001C3.9375 21.7133 3.95438 22.1778 4.02244 23.6361C4.09134 25.0916 4.3283 26.0851 4.67578 26.9544C5.03522 27.8537 5.51573 28.6165 6.29761 29.3764C7.07906 30.1369 7.86361 30.6052 8.78794 30.9544C9.68273 31.2925 10.7048 31.5228 12.2016 31.5896C13.7017 31.6559 14.1806 31.6721 17.9996 31.6721C21.8191 31.6721 22.2969 31.6559 23.7968 31.5896C25.2939 31.5228 26.317 31.2925 27.2118 30.9544C28.1364 30.6052 28.9198 30.1369 29.7011 29.3764C30.4834 28.6165 30.9638 27.8537 31.3242 26.9548C31.6699 26.0851 31.9072 25.0913 31.9776 23.6364C32.0449 22.1781 32.0625 21.7133 32.0625 18.0001C32.0625 14.287 32.0449 13.8211 31.9776 12.3627C31.9072 10.9072 31.6699 9.91377 31.3242 9.04451C30.9638 8.14518 30.4834 7.38242 29.7011 6.6224C28.919 5.86197 28.1367 5.3948 27.2109 5.04603C26.3145 4.70779 25.292 4.47729 23.7949 4.4107C22.2948 4.34439 21.8173 4.32812 17.9969 4.32812H18.0013ZM16.7397 6.79193C17.1142 6.79139 17.532 6.79193 18.0013 6.79193C21.7561 6.79193 22.201 6.80506 23.6838 6.87055C25.0549 6.93152 25.7991 7.15424 26.2948 7.34141C26.9511 7.58914 27.4189 7.88541 27.9108 8.36406C28.403 8.84258 28.7076 9.29826 28.9631 9.93633C29.1556 10.4176 29.385 11.1411 29.4474 12.4741C29.5148 13.9154 29.5294 14.3482 29.5294 17.997C29.5294 21.6457 29.5148 22.0787 29.4474 23.5199C29.3847 24.8529 29.1556 25.5764 28.9631 26.0578C28.7083 26.6959 28.403 27.1502 27.9108 27.6284C27.4186 28.1069 26.9513 28.4031 26.2948 28.6509C25.7996 28.8389 25.0549 29.0611 23.6838 29.1221C22.2013 29.1876 21.7561 29.2018 18.0013 29.2018C14.2463 29.2018 13.8012 29.1876 12.3189 29.1221C10.9478 29.0605 10.2036 28.8378 9.70748 28.6507C9.05133 28.4028 8.58248 28.1067 8.0903 27.6281C7.59811 27.1496 7.29352 26.695 7.038 26.0567C6.84548 25.5753 6.61613 24.8518 6.55369 23.5188C6.48633 22.0775 6.47283 21.6446 6.47283 17.9936C6.47283 14.3426 6.48633 13.912 6.55369 12.4707C6.61641 11.1377 6.84548 10.4142 7.038 9.93223C7.29295 9.29416 7.59811 8.83848 8.09044 8.35996C8.58263 7.88145 9.05133 7.58518 9.70762 7.33689C10.2033 7.14891 10.9478 6.92674 12.3189 6.86549C13.6162 6.80848 14.1189 6.79139 16.7397 6.78852V6.79193ZM25.5078 9.06201C24.5762 9.06201 23.8203 9.79619 23.8203 10.7021C23.8203 11.6079 24.5762 12.3427 25.5078 12.3427C26.4395 12.3427 27.1953 11.6079 27.1953 10.7021C27.1953 9.79633 26.4395 9.06146 25.5078 9.06146V9.06201ZM18.0013 10.9789C14.0131 10.9789 10.7796 14.1227 10.7796 18.0001C10.7796 21.8776 14.0131 25.0198 18.0013 25.0198C21.9895 25.0198 25.2219 21.8776 25.2219 18.0001C25.2219 14.1228 21.9893 10.9789 18.001 10.9789H18.0013ZM18.0013 13.4428C20.59 13.4428 22.6889 15.483 22.6889 18.0001C22.6889 20.517 20.59 22.5575 18.0013 22.5575C15.4124 22.5575 13.3138 20.517 13.3138 18.0001C13.3138 15.483 15.4124 13.4428 18.0013 13.4428Z" fill="white"/>
<defs>
<radialGradient id="paint0_radial_1290_1198" cx="0" cy="0" r="1" gradientUnits="userSpaceOnUse" gradientTransform="translate(9.5625 38.1957) rotate(-90) scale(34.6876 33.184)">
<stop stop-color="#FFDD55"/>
<stop offset="0.1" stop-color="#FFDD55"/>
<stop offset="0.5" stop-color="#FF543E"/>
<stop offset="1" stop-color="#C837AB"/>
</radialGradient>
<radialGradient id="paint1_radial_1290_1198" cx="0" cy="0" r="1" gradientUnits="userSpaceOnUse" gradientTransform="translate(-6.03014 3.02123) rotate(78.3663) scale(15.5228 65.6672)">
<stop stop-color="#3771C8"/>
<stop offset="0.128" stop-color="#3771C8"/>
<stop offset="1" stop-color="#6600FF" stop-opacity="0"/>
</radialGradient>
</defs>
</svg>
