<svg width="183" height="185" viewBox="0 0 183 185" fill="none" xmlns="http://www.w3.org/2000/svg">
<g filter="url(#filter0_b_41_369)">
<rect x="0.333344" width="182" height="185" rx="24" fill="white" fill-opacity="0.1"/>
<rect x="0.833344" y="0.5" width="181" height="184" rx="23.5" stroke="white"/>
<path d="M31.3333 153V139.556C31.3333 132.424 34.1663 125.585 39.2089 120.542C44.2516 115.5 51.0909 112.667 58.2222 112.667H85.1111C92.2425 112.667 99.0818 115.5 104.124 120.542C109.167 125.585 112 132.424 112 139.556V153M118.722 32.8739C124.506 34.3548 129.633 37.7186 133.294 42.435C136.955 47.1514 138.942 52.952 138.942 58.9225C138.942 64.893 136.955 70.6936 133.294 75.41C129.633 80.1264 124.506 83.4902 118.722 84.9711M152.333 153V139.556C152.299 133.621 150.303 127.864 146.655 123.183C143.007 118.502 137.913 115.159 132.167 113.675M44.7778 58.8889C44.7778 66.0203 47.6107 72.8596 52.6534 77.9022C57.696 82.9449 64.5353 85.7778 71.6667 85.7778C78.7981 85.7778 85.6373 82.9449 90.68 77.9022C95.7226 72.8596 98.5556 66.0203 98.5556 58.8889C98.5556 51.7575 95.7226 44.9182 90.68 39.8756C85.6373 34.8329 78.7981 32 71.6667 32C64.5353 32 57.696 34.8329 52.6534 39.8756C47.6107 44.9182 44.7778 51.7575 44.7778 58.8889Z" stroke="white" stroke-width="7" stroke-linecap="round" stroke-linejoin="round"/>
</g>
<defs>
<filter id="filter0_b_41_369" x="-16.7667" y="-17.1" width="216.2" height="219.2" filterUnits="userSpaceOnUse" color-interpolation-filters="sRGB">
<feFlood flood-opacity="0" result="BackgroundImageFix"/>
<feGaussianBlur in="BackgroundImageFix" stdDeviation="8.55"/>
<feComposite in2="SourceAlpha" operator="in" result="effect1_backgroundBlur_41_369"/>
<feBlend mode="normal" in="SourceGraphic" in2="effect1_backgroundBlur_41_369" result="shape"/>
</filter>
</defs>
</svg>
