<svg width="182" height="185" viewBox="0 0 182 185" fill="none" xmlns="http://www.w3.org/2000/svg">
<g filter="url(#filter0_b_41_389)">
<rect width="182" height="185" rx="24" fill="white" fill-opacity="0.1"/>
<rect x="0.5" y="0.5" width="181" height="184" rx="23.5" stroke="white"/>
<path d="M117.166 32H124.353C126.259 32 128.087 32.7495 129.435 34.0837C130.783 35.4179 131.54 37.2275 131.54 39.1143V64.0143M153.101 46.2286C154.998 47.0254 156.838 47.7724 158.62 48.4696C160.375 49.2065 161.762 50.6031 162.476 52.3522C163.19 54.1013 163.174 56.0596 162.43 57.7964L145.914 96.0287" stroke="white" stroke-width="7" stroke-linecap="round" stroke-linejoin="round"/>
<path d="M34.7997 62.6648L34.7876 62.6361C34.4166 61.7703 34.4042 60.7972 34.7524 59.9227C35.0971 59.0569 35.7759 58.347 36.6649 57.952L87.9316 35.848C87.9341 35.847 87.9367 35.8459 87.9392 35.8448C88.3567 35.6689 88.8067 35.5764 89.2627 35.5738C89.7215 35.5712 90.1753 35.6595 90.5971 35.8328C91.0188 36.006 91.3989 36.2601 91.7158 36.5783C92.0326 36.8964 92.28 37.2721 92.4451 37.6823C92.4509 37.6965 92.4567 37.7107 92.4626 37.7249L127.851 122.399L127.863 122.428C128.234 123.294 128.246 124.267 127.898 125.141C127.551 126.013 126.868 126.727 125.986 127.119C125.982 127.121 125.979 127.122 125.975 127.124L74.7231 149.224C74.7209 149.225 74.7187 149.226 74.7165 149.227C74.2985 149.404 73.8478 149.497 73.3911 149.5C72.9319 149.503 72.4777 149.415 72.0554 149.241C71.6333 149.068 71.2529 148.814 70.9357 148.495C70.6186 148.177 70.3711 147.801 70.206 147.39C70.2001 147.376 70.1941 147.361 70.188 147.346L34.7997 62.6648Z" stroke="white" stroke-width="7" stroke-linecap="round" stroke-linejoin="round"/>
</g>
<defs>
<filter id="filter0_b_41_389" x="-17.1" y="-17.1" width="216.2" height="219.2" filterUnits="userSpaceOnUse" color-interpolation-filters="sRGB">
<feFlood flood-opacity="0" result="BackgroundImageFix"/>
<feGaussianBlur in="BackgroundImageFix" stdDeviation="8.55"/>
<feComposite in2="SourceAlpha" operator="in" result="effect1_backgroundBlur_41_389"/>
<feBlend mode="normal" in="SourceGraphic" in2="effect1_backgroundBlur_41_389" result="shape"/>
</filter>
</defs>
</svg>
