<svg width="86" height="85" viewBox="0 0 86 85" fill="none" xmlns="http://www.w3.org/2000/svg">
<path d="M72.3782 26.1108C72.1847 27.3824 72.6112 28.6699 73.5195 29.5782L79.7119 35.7705C81.568 37.6267 82.5 40.0633 82.5 42.5C82.5 44.9367 81.5719 47.3694 79.7119 49.2294L73.3497 55.5916C72.9221 56.0188 72.4004 56.3399 71.8264 56.5292C71.2524 56.7184 70.642 56.7706 70.0442 56.6816C68.1881 56.4052 66.8769 54.786 66.2213 53.0286C65.6461 51.4757 64.6897 50.0924 63.44 49.0058C62.1903 47.9192 60.6875 47.1643 59.0697 46.8105C57.452 46.4566 55.7712 46.5153 54.182 46.9809C52.5929 47.4466 51.1463 48.3043 49.9753 49.4753C48.8043 50.6463 47.9466 52.0929 47.4809 53.682C47.0153 55.2712 46.9567 56.952 47.3105 58.5697C47.6643 60.1875 48.4192 61.6903 49.5058 62.94C50.5924 64.1897 51.9757 65.1461 53.5286 65.7213C55.2899 66.3769 56.9052 67.6841 57.1816 69.5442C57.271 70.142 57.2189 70.7525 57.0296 71.3265C56.8403 71.9006 56.5191 72.4223 56.0916 72.8497L49.7334 79.2079C48.8503 80.094 47.8009 80.7968 46.6453 81.2759C45.4898 81.7551 44.251 82.0012 43 82C41.7499 82.0016 40.5119 81.7561 39.357 81.2776C38.2021 80.7991 37.1532 80.0971 36.2705 79.2118L30.0782 73.0195C29.6306 72.5711 29.0841 72.2339 28.4826 72.035C27.8811 71.8361 27.2414 71.7811 26.6147 71.8742C24.6678 72.1665 23.2974 73.8646 22.5865 75.6971C21.9907 77.2264 21.023 78.5831 19.7709 79.6444C18.5189 80.7057 17.022 81.4381 15.4157 81.7753C13.8094 82.1126 12.1443 82.044 10.5711 81.5759C8.99798 81.1078 7.56635 80.2548 6.40575 79.0942C5.24515 77.9336 4.39221 76.502 3.92408 74.9289C3.45596 73.3557 3.38742 71.6906 3.72467 70.0843C4.06192 68.478 4.79431 66.9811 5.8556 65.7291C6.91689 64.477 8.27358 63.5093 9.80295 62.9135C11.6354 62.2026 13.3335 60.8322 13.6218 58.8853C13.7155 58.2589 13.661 57.6194 13.4628 57.0179C13.2646 56.4164 12.9282 55.8698 12.4805 55.4218L6.28815 49.2294C5.40293 48.3468 4.70089 47.2979 4.22241 46.143C3.74392 44.9881 3.49841 43.7501 3.50001 42.5C3.50001 40.0633 4.43202 37.6267 6.28815 35.7705L12.3146 29.7441C13.2625 28.7962 14.6091 28.35 15.9361 28.5474C17.9699 28.8515 19.3995 30.6326 20.1736 32.5361C20.7885 34.0437 21.7666 35.3759 23.021 36.4139C24.2754 37.4519 25.767 38.1636 27.363 38.4856C28.959 38.8076 30.6099 38.7299 32.1686 38.2593C33.7273 37.7888 35.1455 36.9401 36.2968 35.7888C37.448 34.6376 38.2967 33.2194 38.7673 31.6607C39.2378 30.102 39.3155 28.4511 38.9935 26.8551C38.6715 25.2591 37.9598 23.7675 36.9218 22.5131C35.8838 21.2587 34.5516 20.2806 33.044 19.6657C31.1405 18.8916 29.3594 17.462 29.0553 15.4282C28.8579 14.1012 29.3002 12.7585 30.252 11.8067L36.2745 5.7842C37.157 4.90016 38.2054 4.19913 39.3596 3.72134C40.5137 3.24355 41.7509 2.99842 43 3.00001C45.4367 3.00001 47.8733 3.93202 49.7295 5.78815L55.9218 11.9805C56.8301 12.8888 58.1176 13.3153 59.3853 13.1258C61.3322 12.8335 62.7026 11.1354 63.4135 9.30295C64.0093 7.77358 64.977 6.41689 66.2291 5.3556C67.4811 4.29431 68.978 3.56192 70.5843 3.22467C72.1907 2.88742 73.8557 2.95596 75.4289 3.42408C77.002 3.89221 78.4337 4.74515 79.5943 5.90575C80.7549 7.06635 81.6078 8.49798 82.0759 10.0711C82.544 11.6443 82.6126 13.3094 82.2753 14.9157C81.9381 16.522 81.2057 18.0189 80.1444 19.2709C79.0831 20.523 77.7264 21.4907 76.1971 22.0865C74.3646 22.7974 72.6665 24.1638 72.3782 26.1108Z" stroke="#28CCD1" stroke-opacity="0.5" stroke-width="6" stroke-linecap="round" stroke-linejoin="round"/>
</svg>
