<svg width="30" height="30" viewBox="0 0 30 30" fill="none" xmlns="http://www.w3.org/2000/svg">
<g clip-path="url(#clip0_1290_1207)">
<path d="M0.900391 29.4L2.89882 22.1076C1.64055 19.9496 0.974406 17.494 0.974406 15.0384C0.974406 7.22509 7.26575 0.900024 15.0374 0.900024C18.8122 0.900024 22.2909 2.38828 24.9555 5.06713C27.6201 7.74598 29.1004 11.2434 29.1004 15.0384C29.1004 22.8517 22.8091 29.1768 15.0374 29.1768C12.6689 29.1768 10.3744 28.5815 8.30197 27.4653L0.900391 29.4Z" fill="white"/>
<path d="M0.701352 29.6999C0.627006 29.6999 0.478315 29.6258 0.403969 29.6258C0.329623 29.5518 0.255277 29.4037 0.329623 29.2556L2.26261 22.0731C1.07308 19.9258 0.403969 17.4823 0.403969 14.9647C0.403969 7.04184 6.9464 0.599854 14.9014 0.599854C18.7674 0.599854 22.4103 2.08077 25.1611 4.82046C27.9119 7.56016 29.3988 11.1884 29.3988 15.0388C29.3988 22.9617 22.9307 29.4777 14.9014 29.4777C12.5223 29.4777 10.2176 28.8854 8.13593 27.7747L0.775698 29.6999H0.701352Z" fill="white"/>
<path d="M15.014 0.744417C18.8164 0.744417 22.3206 2.23325 25.0047 4.91315C27.6887 7.59305 29.1799 11.0918 29.1799 14.8883C29.1799 22.7047 22.8425 29.0323 15.014 29.0323C12.6281 29.0323 10.3169 28.4367 8.22926 27.3201L0.773532 29.2556L2.78658 21.9603C1.51911 19.8015 0.848089 17.3449 0.848089 14.8883C0.848089 7.07196 7.18546 0.744417 15.014 0.744417ZM15.014 0C6.81268 0 0.102516 6.69975 0.102516 14.8883C0.102516 17.4194 0.698975 19.8759 1.96645 22.0347L0.027959 29.0323C-0.0465983 29.2556 0.0279588 29.5534 0.251631 29.7767C0.400745 29.9256 0.54986 30 0.773532 30C0.84809 30 0.922647 30 0.997204 30L8.22926 28.139C10.3169 29.2556 12.7027 29.7767 15.0885 29.7767C23.2898 29.7767 30 23.0769 30 14.8883C30 10.9429 28.4343 7.1464 25.6757 4.39206C22.7679 1.56328 19.0401 0 15.014 0Z" fill="#CFD8DC"/>
<path d="M23.2945 6.71719C21.0729 4.48862 18.185 3.30005 15.0008 3.30005C8.55838 3.30005 3.30078 8.57433 3.30078 15.0372C3.30078 17.2658 3.89319 19.42 5.078 21.2772L5.3742 21.7229L4.18939 26.0315L8.63243 24.8429L9.07673 25.0658C10.8539 26.1058 12.9274 26.7 15.0008 26.7C21.4432 26.7 26.7008 21.4258 26.7008 14.9629C26.7008 11.9172 25.516 8.94576 23.2945 6.71719Z" fill="#40C351"/>
<path fill-rule="evenodd" clip-rule="evenodd" d="M11.538 9.00027C11.2389 8.3999 11.0145 8.3999 10.7154 8.3999C10.491 8.3999 10.2667 8.3999 10.0423 8.3999C9.81798 8.3999 9.44407 8.47495 9.07015 8.85018C8.77101 9.22541 7.79883 10.0509 7.79883 11.852C7.79883 13.6531 9.07015 15.3042 9.21972 15.5293C9.36928 15.7544 11.6876 19.5068 15.2772 20.9326C18.2685 22.1334 18.8668 21.9082 19.5399 21.8332C20.2129 21.7581 21.6338 21.0077 21.9329 20.1071C22.2321 19.2816 22.2321 18.5312 22.1573 18.3811C22.0825 18.231 21.8581 18.1559 21.4842 17.9308C21.1103 17.7056 19.3903 16.8801 19.0912 16.8051C18.792 16.655 18.4929 16.655 18.2685 16.9552C18.0442 17.3304 17.3711 18.0809 17.1468 18.3811C16.9224 18.6062 16.6981 18.6812 16.3989 18.4561C16.025 18.306 14.9033 17.9308 13.5572 16.655C12.5102 15.6794 11.7624 14.5537 11.6128 14.1785C11.3884 13.8032 11.6128 13.6531 11.7624 13.428C11.9119 13.2779 12.1363 12.9777 12.2858 12.8276C12.4354 12.6025 12.5102 12.4524 12.6598 12.2273C12.8093 12.0021 12.7345 11.777 12.6598 11.6269C12.5102 11.4768 11.8371 9.75074 11.538 9.00027Z" fill="white"/>
</g>
<defs>
<clipPath id="clip0_1290_1207">
<rect width="30" height="30" fill="white"/>
</clipPath>
</defs>
</svg>
