<svg width="42" height="41" viewBox="0 0 42 41" fill="none" xmlns="http://www.w3.org/2000/svg">
<rect x="0.5" width="41" height="41" rx="13" fill="white" fill-opacity="0.1"/>
<g clip-path="url(#clip0_602_414)">
<path d="M9.25 32.5L10.9154 26.423C9.8668 24.6247 9.31168 22.5783 9.31168 20.532C9.31168 14.0209 14.5545 8.75 21.0308 8.75C24.1765 8.75 27.0755 9.99021 29.2959 12.2226C31.5164 14.455 32.75 17.3695 32.75 20.532C32.75 27.0431 27.5072 32.314 21.0308 32.314C19.0571 32.314 17.145 31.8179 15.418 30.8877L9.25 32.5Z" fill="white"/>
<path d="M9.08544 32.75C9.02348 32.75 8.89957 32.6883 8.83762 32.6883C8.77566 32.6266 8.71371 32.5032 8.77566 32.3798L10.3865 26.3944C9.39521 24.605 8.83762 22.5687 8.83762 20.4707C8.83762 13.8683 14.2896 8.5 20.9188 8.5C24.1405 8.5 27.1762 9.7341 29.4686 12.0172C31.7609 14.3003 33 17.3238 33 20.5324C33 27.1349 27.6099 32.5649 20.9188 32.5649C18.9363 32.5649 17.0157 32.0712 15.2809 31.1457L9.14739 32.75H9.08544Z" fill="white"/>
<path d="M21.0117 8.62035C24.1803 8.62035 27.1005 9.86104 29.3372 12.0943C31.5739 14.3275 32.8166 17.2432 32.8166 20.4069C32.8166 26.9206 27.5354 32.1935 21.0117 32.1935C19.0235 32.1935 17.0974 31.6973 15.3577 30.7667L9.14461 32.3797L10.8221 26.3002C9.76592 24.5012 9.20674 22.4541 9.20674 20.4069C9.20674 13.8933 14.4879 8.62035 21.0117 8.62035ZM21.0117 8C14.1772 8 8.58543 13.5831 8.58543 20.4069C8.58543 22.5161 9.08248 24.5633 10.1387 26.3623L8.5233 32.1935C8.46117 32.3797 8.5233 32.6278 8.70969 32.8139C8.83395 32.938 8.95822 33 9.14461 33C9.20674 33 9.26887 33 9.331 33L15.3577 31.4491C17.0974 32.3797 19.0856 32.8139 21.0738 32.8139C27.9082 32.8139 33.5 27.2308 33.5 20.4069C33.5 17.1191 32.1952 13.9553 29.8964 11.66C27.4733 9.30273 24.3667 8 21.0117 8Z" fill="#CFD8DC"/>
<path d="M27.9114 13.5976C26.0601 11.7405 23.6535 10.75 21 10.75C15.6313 10.75 11.25 15.1452 11.25 20.531C11.25 22.3881 11.7437 24.1833 12.731 25.731L12.9778 26.1024L11.9905 29.6929L15.693 28.7024L16.0633 28.8881C17.5443 29.7548 19.2722 30.25 21 30.25C26.3687 30.25 30.75 25.8548 30.75 20.469C30.75 17.931 29.7627 15.4548 27.9114 13.5976Z" fill="#40C351"/>
<path fill-rule="evenodd" clip-rule="evenodd" d="M18.116 15.5003C17.8667 15 17.6797 15 17.4305 15C17.2435 15 17.0565 15 16.8696 15C16.6826 15 16.371 15.0625 16.0594 15.3752C15.8102 15.6879 15 16.3758 15 17.8768C15 19.3777 16.0594 20.7536 16.1841 20.9412C16.3087 21.1288 18.2406 24.2557 21.232 25.4439C23.7248 26.4446 24.2233 26.2569 24.7842 26.1944C25.3451 26.1319 26.5291 25.5065 26.7784 24.756C27.0277 24.0681 27.0277 23.4427 26.9654 23.3176C26.9031 23.1926 26.7161 23.13 26.4045 22.9424C26.0929 22.7548 24.6595 22.0669 24.4103 22.0043C24.161 21.8792 23.9117 21.8792 23.7248 22.1294C23.5378 22.4421 22.9769 23.0675 22.79 23.3176C22.603 23.5052 22.416 23.5678 22.1668 23.3802C21.8552 23.2551 20.9204 22.9424 19.7986 21.8792C18.9261 21.0662 18.3029 20.1282 18.1783 19.8155C17.9913 19.5028 18.1783 19.3777 18.3029 19.1901C18.4276 19.065 18.6145 18.8149 18.7392 18.6898C18.8638 18.5022 18.9261 18.3771 19.0508 18.1895C19.1754 18.0019 19.1131 17.8142 19.0508 17.6892C18.9261 17.5641 18.3653 16.1257 18.116 15.5003Z" fill="white"/>
</g>
<defs>
<clipPath id="clip0_602_414">
<rect width="25" height="25" fill="white" transform="translate(8.5 8)"/>
</clipPath>
</defs>
</svg>
