<svg width="266" height="255" viewBox="0 0 266 255" fill="none" xmlns="http://www.w3.org/2000/svg">
<path d="M152.686 66.3586C176.038 111.299 117.659 162.207 88.2934 97.606C88.2934 1.40599 63.5268 120.076 15.7627 75.136C-32.0015 30.1959 39.4678 31.2491 88.2934 7.37465C137.119 -16.4998 129.335 21.4184 152.686 66.3586Z" fill="#DB4265"/>
<path d="M191.234 239.762C162.08 219.539 201.141 159.031 232.276 166.384C272.416 175.863 267.303 205.355 263.411 230.985C259.519 256.615 227.677 265.041 191.234 239.762Z" fill="#DB4265"/>
<path d="M114.812 189.205C98.3949 155.781 64.5708 163.809 49.7108 172.001C18.2219 196.578 37.6815 239.762 72.7084 242.571C107.735 245.38 135.332 230.985 114.812 189.205Z" fill="#DB4265"/>
<path d="M218.479 93.0051C198.665 101.712 202.204 58.4808 206.449 35.7766C219.776 37.6491 248.552 44.2029 257.044 55.4379C267.658 69.4817 243.245 82.1212 218.479 93.0051Z" fill="#DB4265"/>
</svg>
