<svg width="28" height="29" viewBox="0 0 28 29" fill="none" xmlns="http://www.w3.org/2000/svg">
<path d="M26.21 0.899994C27.0197 1.35348 27.6162 2.11001 27.8682 3.0032C28.1203 3.8964 28.0072 4.85312 27.554 5.66299L16.044 26.217C15.7525 26.7377 15.3482 27.1866 14.8607 27.5308C14.3732 27.8749 13.8149 28.1057 13.2266 28.2061C12.6384 28.3065 12.0351 28.274 11.4611 28.1109C10.887 27.9479 10.3567 27.6586 9.909 27.264L1.186 19.58C0.489542 18.9663 0.0654039 18.101 0.00689257 17.1746C-0.0516188 16.2482 0.260289 15.3365 0.874 14.64C1.48771 13.9435 2.35295 13.5194 3.27938 13.4609C4.20581 13.4024 5.11754 13.7143 5.814 14.328L11.75 19.558L21.446 2.24399C21.6705 1.84292 21.9719 1.49001 22.3328 1.20541C22.6938 0.920803 23.1073 0.710083 23.5496 0.58528C23.992 0.460476 24.4546 0.424033 24.9111 0.478032C25.3676 0.532031 25.8089 0.675415 26.21 0.899994Z" fill="#28CCD1"/>
</svg>
