<svg width="98" height="87" viewBox="0 0 98 87" fill="none" xmlns="http://www.w3.org/2000/svg">
<path d="M38.6605 43.7811C39.3409 45.2442 40.388 46.5078 41.7008 47.4497C46.9495 50.9702 53.9412 48.0027 56.7686 42.9121C60.923 35.4417 56.6596 26.2826 49.2174 22.7671C39.3142 18.0764 27.5739 23.5274 23.2709 33.0667C17.8489 45.0748 24.7069 58.9788 36.6898 63.9064C51.203 69.871 67.8007 61.8426 73.5199 47.8348C80.254 31.3287 70.7618 12.6106 54.2284 6.3103C35.1399 -0.9676 13.6252 9.66782 6.51471 28.144C-1.55641 49.1433 10.5899 72.7002 31.6788 80.3632C55.3376 88.9545 81.7791 75.717 90.2711 52.7625C91.9347 48.307 92.8984 43.622 93.1282 38.8732" stroke="#28CCD1" stroke-opacity="0.7" stroke-width="8" stroke-linecap="round" stroke-linejoin="round"/>
</svg>
