<svg width="634" height="950" viewBox="0 0 634 950" fill="none" xmlns="http://www.w3.org/2000/svg">
<g clip-path="url(#clip0_1186_978)">
<path d="M536.364 106.719C464.397 187.893 385.112 225.867 208.864 282.441C32.616 339.015 3.34485 399.051 -3.81997 526.309L-29.6641 542.595L14.8217 315.871L239.792 169.293L536.364 106.719Z" fill="#3F3F3F"/>
<path d="M536.364 106.719C464.397 187.893 385.112 225.867 208.864 282.441C32.616 339.015 3.34485 399.051 -3.81997 526.309L-29.6641 542.595L14.8217 315.871L239.792 169.293L536.364 106.719Z" fill="url(#paint0_linear_1186_978)" fill-opacity="0.2"/>
<path d="M222.846 211.295C319.443 195.009 348.677 203.58 372.826 197.58C372.826 197.58 324.527 222.01 255.045 227.581C185.876 233.128 143.578 256.089 108.924 274.9L108.454 275.155C73.7127 294.013 24.9902 336.872 24.9902 336.872C24.9902 336.872 128.79 211.295 222.846 211.295Z" fill="#DC6A84"/>
<path d="M222.846 211.295C319.443 195.009 348.677 203.58 372.826 197.58C372.826 197.58 324.527 222.01 255.045 227.581C185.876 233.128 143.578 256.089 108.924 274.9L108.454 275.155C73.7127 294.013 24.9902 336.872 24.9902 336.872C24.9902 336.872 128.79 211.295 222.846 211.295Z" fill="url(#paint1_radial_1186_978)" fill-opacity="0.2"/>
<path d="M453.324 171.007C347.598 227.85 257.587 196.723 157.176 241.296C56.7658 285.87 -14.0368 373.732 -33.0531 499.736C-41.2734 554.206 -24.3246 586.219 1.47355 619.313L-50 617.17V270.44L3.38288 0H633.897C592.33 52.1296 519.548 135.403 453.324 171.007Z" fill="#DB4265"/>
<path d="M453.324 171.007C347.598 227.85 257.587 196.723 157.176 241.296C56.7658 285.87 -14.0368 373.732 -33.0531 499.736C-41.2734 554.206 -24.3246 586.219 1.47355 619.313L-50 617.17V270.44L3.38288 0H633.897C592.33 52.1296 519.548 135.403 453.324 171.007Z" fill="url(#paint2_radial_1186_978)" fill-opacity="0.4"/>
<path d="M89.1079 687.898C114.694 760.592 102.289 811.399 89.1079 843.837C75.9273 876.275 28.2443 945.06 -20.214 957.567C-34.2421 961.187 -25.6414 941.543 -21.377 920.048C-33.7824 877.057 22.8169 828.204 22.8169 828.204L6.14729 590.192L-62.082 439.725L-38.4344 424.874C-44.1185 525.487 63.5219 615.205 89.1079 687.898Z" fill="#3F3F3F"/>
<path d="M89.1079 687.898C114.694 760.592 102.289 811.399 89.1079 843.837C75.9273 876.275 28.2443 945.06 -20.214 957.567C-34.2421 961.187 -25.6414 941.543 -21.377 920.048C-33.7824 877.057 22.8169 828.204 22.8169 828.204L6.14729 590.192L-62.082 439.725L-38.4344 424.874C-44.1185 525.487 63.5219 615.205 89.1079 687.898Z" fill="url(#paint3_linear_1186_978)" fill-opacity="0.2"/>
<path d="M36.7767 597.42C74.709 662.961 85.1721 717.885 62.2673 790.225C41.0234 857.319 24.0346 887.361 -16.5219 911.07L-76 507.471L-29.0766 509.426C-9.8127 534.162 14.864 559.559 36.7767 597.42Z" fill="#DB4265"/>
<path d="M36.7767 597.42C74.709 662.961 85.1721 717.885 62.2673 790.225C41.0234 857.319 24.0346 887.361 -16.5219 911.07L-76 507.471L-29.0766 509.426C-9.8127 534.162 14.864 559.559 36.7767 597.42Z" fill="url(#paint4_radial_1186_978)" fill-opacity="0.4"/>
</g>
<defs>
<linearGradient id="paint0_linear_1186_978" x1="485.099" y1="421.304" x2="-311.273" y2="321.171" gradientUnits="userSpaceOnUse">
<stop stop-color="white"/>
<stop offset="1" stop-opacity="0"/>
</linearGradient>
<radialGradient id="paint1_radial_1186_978" cx="0" cy="0" r="1" gradientUnits="userSpaceOnUse" gradientTransform="translate(437.159 265.701) rotate(174.799) scale(327.947 77.8042)">
<stop stop-color="white"/>
<stop offset="1" stop-opacity="0"/>
</radialGradient>
<radialGradient id="paint2_radial_1186_978" cx="0" cy="0" r="1" gradientUnits="userSpaceOnUse" gradientTransform="translate(187.681 354.873) rotate(-35.2958) scale(271.486 272.545)">
<stop/>
<stop offset="0.834442" stop-color="#B83755" stop-opacity="0.8"/>
</radialGradient>
<linearGradient id="paint3_linear_1186_978" x1="408.933" y1="329.122" x2="-319.679" y2="237.195" gradientUnits="userSpaceOnUse">
<stop stop-color="white"/>
<stop offset="1" stop-opacity="0"/>
</linearGradient>
<radialGradient id="paint4_radial_1186_978" cx="0" cy="0" r="1" gradientUnits="userSpaceOnUse" gradientTransform="translate(140.67 268.127) rotate(-35.3222) scale(247.567 248.614)">
<stop/>
<stop offset="0.834442" stop-color="#B83755" stop-opacity="0.8"/>
</radialGradient>
<clipPath id="clip0_1186_978">
<rect width="710" height="950" fill="white" transform="translate(-76)"/>
</clipPath>
</defs>
</svg>
