<svg width="334" height="646" viewBox="0 0 334 646" fill="none" xmlns="http://www.w3.org/2000/svg">
<g clip-path="url(#clip0_1281_833)">
<path d="M213.661 298.404C213.661 203.5 261 70 261 70C258.424 43.2759 229.931 26.504 185 16.48L126.5 385.5L245.5 512L260.752 646C260.752 646 340.375 542.691 333.394 467.901C325.861 387.21 213.661 379.446 213.661 298.404Z" fill="#DC6A84"/>
<path d="M213.661 298.404C213.661 203.5 261 70 261 70C258.424 43.2759 229.931 26.504 185 16.48L126.5 385.5L245.5 512L260.752 646C260.752 646 340.375 542.691 333.394 467.901C325.861 387.21 213.661 379.446 213.661 298.404Z" fill="url(#paint0_radial_1281_833)" fill-opacity="0.2"/>
<path d="M193.661 318.404C193.661 223.5 261.292 72 261.292 72C273 34.5 221.5 0 88.5 0C45.4616 0 13.7325 7.53947 -9.5 17.7389V646H254.146C254.146 646 320.375 562.691 313.394 487.901C305.861 407.21 193.661 399.446 193.661 318.404Z" fill="#2B2B2B"/>
<path d="M193.661 318.404C193.661 223.5 261.292 72 261.292 72C273 34.5 221.5 0 88.5 0C45.4616 0 13.7325 7.53947 -9.5 17.7389V646H254.146C254.146 646 320.375 562.691 313.394 487.901C305.861 407.21 193.661 399.446 193.661 318.404Z" fill="url(#paint1_linear_1281_833)" fill-opacity="0.2"/>
</g>
<defs>
<radialGradient id="paint0_radial_1281_833" cx="0" cy="0" r="1" gradientUnits="userSpaceOnUse" gradientTransform="translate(436.5 406.5) rotate(161.384) scale(549.765 437.083)">
<stop stop-color="white"/>
<stop offset="1" stop-opacity="0"/>
</radialGradient>
<linearGradient id="paint1_linear_1281_833" x1="619.5" y1="-385.5" x2="-37.5003" y2="851" gradientUnits="userSpaceOnUse">
<stop stop-color="white"/>
<stop offset="1" stop-color="white" stop-opacity="0"/>
</linearGradient>
<clipPath id="clip0_1281_833">
<rect width="334" height="646" fill="white"/>
</clipPath>
</defs>
</svg>
