<svg width="79" height="79" viewBox="0 0 79 79" fill="none" xmlns="http://www.w3.org/2000/svg">
<path d="M78.9149 59.0499L77.4468 51.6046C76.8569 48.6128 75.4036 45.893 73.2442 43.7395L70.6662 41.1689V32.4076C72.2774 31.7708 73.4207 30.199 73.4207 28.3641C73.4207 27.8688 73.3363 27.393 73.1829 26.9491C75.0084 26.4337 76.3505 24.7542 76.3505 22.7661C76.3505 22.241 76.2569 21.7374 76.0854 21.2709C77.7798 20.677 78.9986 19.0626 78.9986 17.1682C78.9986 15.2736 77.7798 13.6593 76.0854 13.0654C76.2569 12.599 76.3505 12.0954 76.3505 11.5703C76.3505 9.17328 74.4004 7.22343 72.0037 7.22343H63.2919C64.0916 6.25738 64.4763 4.96129 64.2441 3.64467C64.0367 2.46831 63.3799 1.44872 62.3945 0.773515C61.4093 0.0983116 60.2211 -0.146249 59.0497 0.0848878L51.6042 1.55302C48.6122 2.14305 45.8926 3.59638 43.7392 5.75576L41.1687 8.33375H32.4074C31.7706 6.72259 30.1988 5.57925 28.364 5.57925C27.8687 5.57925 27.3929 5.66365 26.949 5.81702C26.4336 3.99153 24.7541 2.64946 22.7661 2.64946C22.2411 2.64946 21.7374 2.74311 21.271 2.91454C20.6771 1.2202 19.0627 0.00141318 17.1682 0.00141318C15.2736 0.00141318 13.6594 1.22036 13.0655 2.91469C12.599 2.74327 12.0954 2.64961 11.5704 2.64961C9.1735 2.64961 7.2235 4.59962 7.2235 6.99646V15.7082C6.2576 14.9087 4.96182 14.5241 3.64474 14.7562C2.46838 14.9636 1.44878 15.6204 0.773581 16.6058C0.0983778 17.591 -0.146183 18.779 0.0847997 19.9508L1.55324 27.3961C2.14327 30.388 3.5966 33.1077 5.75583 35.261L8.33367 37.8316V46.5927C6.72234 47.2295 5.57885 48.8015 5.57885 50.6363C5.57885 51.1317 5.66325 51.6074 5.81662 52.0515C3.99113 52.5668 2.64906 54.2462 2.64906 56.2343C2.64906 56.7595 2.74272 57.2631 2.91414 57.7296C1.21965 58.3235 0.00101649 59.9379 0.00101649 61.8323C0.00101649 63.727 1.21981 65.3412 2.91414 65.9349C2.74272 66.4014 2.64906 66.9052 2.64906 67.4302C2.64906 69.8271 4.59922 71.7771 6.99591 71.7771H15.7077C14.9081 72.7431 14.5234 74.0391 14.7557 75.3557C14.963 76.5321 15.6199 77.5516 16.6051 78.2267C17.3482 78.736 18.2067 79.0003 19.0866 79.0003C19.3731 79.0003 19.6621 78.9721 19.9502 78.9155L27.3957 77.4472C30.3873 76.8573 33.1071 75.404 35.2606 73.2446L37.8312 70.6666H46.5925C47.2293 72.2779 48.8011 73.4214 50.636 73.4214C51.1313 73.4214 51.6072 73.337 52.0511 73.1837C52.5666 75.0091 54.2461 76.3511 56.2339 76.3511C56.759 76.3511 57.2628 76.2574 57.7292 76.086C58.3229 77.7805 59.9373 78.9991 61.8318 78.9991C63.7264 78.9991 65.3408 77.7803 65.9345 76.086C66.401 76.2574 66.9048 76.3511 67.4298 76.3511C69.8267 76.3511 71.7765 74.4009 71.7765 72.0042V63.2928C72.7426 64.0922 74.0381 64.477 75.3553 64.2446C76.5317 64.0372 77.5512 63.3804 78.2263 62.3952C78.9013 61.41 79.1461 60.2218 78.9149 59.0499ZM32.7113 20.3402V16.1344V11.4195H41.8093C42.2193 11.4195 42.6124 11.2563 42.9019 10.9661L45.9246 7.9349C47.6433 6.21155 49.8134 5.05155 52.2013 4.58079L59.6468 3.11266C59.9986 3.04353 60.3549 3.11667 60.6505 3.31926C60.9461 3.52185 61.1432 3.82782 61.2053 4.1807C61.326 4.8647 60.8921 5.52987 60.2178 5.69528L57.1237 6.45395C56.1478 6.69312 55.5268 7.59081 55.6473 8.58834C55.7678 9.58587 56.5845 10.31 57.5894 10.31H72.0041C72.6995 10.31 73.2652 10.8758 73.2652 11.5711C73.2652 12.2154 72.7793 12.7474 72.1547 12.8221L63.615 12.832C62.763 12.832 62.072 13.5228 62.072 14.3749C62.072 15.2271 62.763 15.9179 63.615 15.9179L74.6523 15.908C75.3477 15.908 75.9134 16.4738 75.9134 17.1691C75.9134 17.8644 75.3477 18.4302 74.6523 18.4302H63.615C62.763 18.4302 62.072 19.121 62.072 19.9731C62.072 20.8253 62.763 21.5161 63.615 21.5161H72.1553C72.7796 21.5911 73.2652 22.1231 73.2652 22.7671C73.2652 23.4624 72.6995 24.0282 72.0041 24.0282H63.615C62.763 24.0282 62.072 24.719 62.072 25.5712C62.072 26.4234 62.763 27.1142 63.615 27.1142H69.2251C69.8494 27.189 70.3354 27.721 70.3354 28.3653C70.3354 29.0606 69.7697 29.6263 69.0745 29.6263H53.4924C50.228 29.6263 47.1608 28.3533 44.8559 26.0418L42.9022 24.0825C42.6127 23.7923 42.2196 23.629 41.8096 23.629H32.7113V20.3402ZM7.93465 33.0754C6.21116 31.3569 5.05131 29.1865 4.5807 26.7986L3.11241 19.3533C3.04298 19.0017 3.11642 18.6453 3.31902 18.3496C3.52161 18.054 3.82758 17.857 4.18046 17.7948C4.86523 17.6744 5.52947 18.108 5.69488 18.7824L6.4534 21.8762C6.69241 22.8523 7.59073 23.4723 8.58764 23.3529C9.58532 23.2325 10.3094 22.4157 10.3094 21.4109V6.99615C10.3094 6.30089 10.8751 5.73509 11.5705 5.73509C12.2147 5.73509 12.7466 6.22081 12.8215 6.8451L12.8314 15.3853C12.8314 16.2375 13.5224 16.9282 14.3744 16.9282C15.2264 16.9282 15.9174 16.2375 15.9174 15.3853V6.99615C15.9174 6.90219 15.9133 6.8093 15.9075 6.71672V4.34796C15.9075 3.65269 16.4731 3.08704 17.1686 3.08704C17.864 3.08704 18.4296 3.65269 18.4296 4.34796V6.71688C18.4238 6.8093 18.4197 6.90234 18.4197 6.99631L18.4296 15.3854C18.4296 16.2376 19.1206 16.9284 19.9726 16.9284C20.8246 16.9284 21.5156 16.2376 21.5156 15.3854V6.8451C21.5905 6.22081 22.1226 5.73509 22.7666 5.73509C23.462 5.73509 24.0277 6.30089 24.0277 6.99615C24.0277 6.99615 24.0215 14.5024 24.0277 14.5586V15.3854C24.0277 16.2376 24.7186 16.9284 25.5706 16.9284C26.4227 16.9284 27.1136 16.2376 27.1136 15.3854V9.77489C27.1886 9.1506 27.7206 8.66488 28.3646 8.66488C29.0601 8.66488 29.6257 9.23068 29.6257 9.92594V25.5079C29.6257 28.7249 28.3191 31.8728 26.0414 34.1444L24.0821 36.0981C23.7917 36.3875 23.6287 36.7807 23.6287 37.1907V46.2888H20.5429V42.192C20.5429 41.34 19.8519 40.6491 18.9999 40.6491C18.1479 40.6491 17.4569 41.34 17.4569 42.192V46.2888H11.4194V37.1907C11.4194 36.7807 11.2562 36.3875 10.966 36.0981L7.93465 33.0754ZM46.289 67.5804H37.1906C36.7806 67.5804 36.3875 67.7438 36.098 68.0338L33.0753 71.065C31.3566 72.7887 29.1863 73.9485 26.7985 74.419L19.3531 75.8872C19.0013 75.9568 18.645 75.8834 18.3494 75.6806C18.0538 75.4779 17.8567 75.1721 17.7945 74.8192C17.6739 74.1354 18.1078 73.4702 18.782 73.3049L21.8765 72.5463C22.8522 72.3069 23.4731 71.4094 23.3525 70.4119C23.2321 69.4143 22.4153 68.6904 21.4105 68.6904H6.99607C6.30065 68.6904 5.735 68.1247 5.735 67.4293C5.735 66.7848 6.22119 66.2526 6.84594 66.1781L15.3853 66.1684C16.2374 66.1684 16.9283 65.4775 16.9283 64.6254C16.9283 63.7734 16.2374 63.0825 15.3853 63.0825L4.34802 63.0922C3.65261 63.0922 3.08695 62.5265 3.08695 61.8311C3.08695 61.1358 3.65261 60.5702 4.34802 60.5702H15.3853C16.2374 60.5702 16.9283 59.8793 16.9283 59.0272C16.9283 58.1752 16.2374 57.4843 15.3853 57.4843H6.84594C6.22119 57.4097 5.735 56.8776 5.735 56.2331C5.735 55.5378 6.30065 54.9721 6.99607 54.9721H15.3853C16.2374 54.9721 16.9283 54.2812 16.9283 53.4292C16.9283 52.5772 16.2374 51.8862 15.3853 51.8862H9.77572C9.15113 51.8117 8.66494 51.2795 8.66494 50.635C8.66494 49.9396 9.23059 49.374 9.92586 49.374H25.5078C28.772 49.374 31.8393 50.6471 34.1443 52.9584L36.098 54.9177C36.3875 55.2081 36.7806 55.3712 37.1906 55.3712H46.289V67.5804ZM46.3361 52.2863H37.8309L36.3294 50.7805C33.7269 48.1706 30.3492 46.6179 26.714 46.3361V37.831L28.2198 36.3295C30.7886 33.7679 32.3708 30.3169 32.6618 26.7139H41.1691L42.6706 28.2197C45.2731 30.8296 48.651 32.3822 52.2862 32.6641V41.1694L50.7804 42.6708C48.1705 45.273 46.6178 48.6511 46.3361 52.2863ZM75.6807 60.6504C75.4781 60.9461 75.1721 61.1431 74.8191 61.2054C74.1345 61.3267 73.4701 60.8922 73.305 60.2178L72.5463 57.1235C72.307 56.1474 71.4078 55.5276 70.4118 55.6474C69.4142 55.7679 68.6903 56.5846 68.6903 57.5893V72.0041C68.6903 72.6995 68.1246 73.2651 67.4294 73.2651C66.7849 73.2651 66.2527 72.7789 66.1782 72.1542L66.1685 63.6149C66.1685 62.7629 65.4775 62.072 64.6255 62.072C63.7735 62.072 63.0825 62.7629 63.0825 63.6149L63.0922 74.6524C63.0922 75.3477 62.5266 75.9133 61.8312 75.9133C61.1359 75.9133 60.5703 75.3477 60.5703 74.6524V63.6149C60.5703 62.7629 59.8793 62.072 59.0273 62.072C58.1753 62.072 57.4843 62.7629 57.4843 63.6149V72.1542C57.4098 72.7789 56.8776 73.2651 56.2331 73.2651C55.5377 73.2651 54.9721 72.6995 54.9721 72.0041V63.6149C54.9721 62.7629 54.2811 62.072 53.4291 62.072C52.5771 62.072 51.8861 62.7629 51.8861 63.6149V69.2255C51.8111 69.8498 51.2791 70.3355 50.6351 70.3355C49.9397 70.3355 49.374 69.7698 49.374 69.0744V62.8664V58.6606V53.4924C49.374 50.2283 50.6471 47.161 52.9585 44.8558L54.9177 42.9021C55.2081 42.6127 55.3712 42.2195 55.3712 41.8095V32.7113H58.6593H61.3225V37.3916C61.3225 38.2437 62.0134 38.9345 62.8654 38.9345C63.7175 38.9345 64.4084 38.2437 64.4084 37.3916V32.7113H67.5798V41.8095C67.5798 42.2195 67.7431 42.6127 68.0331 42.9021L71.0643 45.9248C72.7879 47.6435 73.9478 49.8138 74.4182 52.2017L75.8865 59.647C75.9567 59.9985 75.8835 60.3549 75.6807 60.6504Z" fill="#28CCD1" fill-opacity="0.6"/>
</svg>
