<svg aria-hidden="true" xmlns="http://www.w3.org/2000/svg" xmlns:xlink="http://www.w3.org/1999/xlink"><symbol viewBox="0 0 267 255" id="blur" xmlns="http://www.w3.org/2000/svg">
<path d="M153.02 66.3586C176.371 111.299 117.992 162.207 88.6264 97.606C88.6264 1.40599 63.8598 120.076 16.0957 75.136C-31.6684 30.1959 39.8008 31.2491 88.6264 7.37465C137.452 -16.4998 129.668 21.4184 153.02 66.3586Z"/>
<path d="M191.567 239.762C162.413 219.539 201.474 159.031 232.609 166.384C272.749 175.863 267.636 205.355 263.744 230.985C259.852 256.615 228.01 265.041 191.567 239.762Z"/>
<path d="M115.145 189.205C98.7279 155.781 64.9038 163.809 50.0438 172.001C18.5549 196.578 38.0145 239.762 73.0414 242.571C108.068 245.38 135.665 230.985 115.145 189.205Z"/>
<path d="M218.812 93.0051C198.999 101.712 202.537 58.4808 206.782 35.7766C220.109 37.6491 248.885 44.2029 257.377 55.4379C267.991 69.4817 243.578 82.1212 218.812 93.0051Z"/>
</symbol><symbol viewBox="0 0 89 129" id="people1" xmlns="http://www.w3.org/2000/svg">
<path d="M4 125V111.556C4 104.424 6.83293 97.5849 11.8756 92.5422C16.9182 87.4996 23.7575 84.6667 30.8889 84.6667H57.7778C64.9092 84.6667 71.7484 87.4996 76.7911 92.5422C81.8337 97.5849 84.6667 104.424 84.6667 111.556V125M17.4444 30.8889C17.4444 38.0203 20.2774 44.8596 25.32 49.9022C30.3627 54.9449 37.202 57.7778 44.3333 57.7778C51.4647 57.7778 58.304 54.9449 63.3466 49.9022C68.3893 44.8596 71.2222 38.0203 71.2222 30.8889C71.2222 23.7575 68.3893 16.9182 63.3466 11.8756C58.304 6.83293 51.4647 4 44.3333 4C37.202 4 30.3627 6.83293 25.32 11.8756C20.2774 16.9182 17.4444 23.7575 17.4444 30.8889Z" stroke-width="7" stroke-linecap="round" stroke-linejoin="round"/>
</symbol></svg>