<svg width="42" height="41" viewBox="0 0 42 41" fill="none" xmlns="http://www.w3.org/2000/svg">
<rect x="0.5" width="41" height="41" rx="13" fill="white" fill-opacity="0.1"/>
<g clip-path="url(#clip0_602_404)">
<path d="M27.6406 8H14.3594C11.1233 8 8.5 10.6233 8.5 13.8594V27.1406C8.5 30.3767 11.1233 33 14.3594 33H27.6406C30.8767 33 33.5 30.3767 33.5 27.1406V13.8594C33.5 10.6233 30.8767 8 27.6406 8Z" fill="url(#paint0_radial_602_404)"/>
<path d="M27.6406 8H14.3594C11.1233 8 8.5 10.6233 8.5 13.8594V27.1406C8.5 30.3767 11.1233 33 14.3594 33H27.6406C30.8767 33 33.5 30.3767 33.5 27.1406V13.8594C33.5 10.6233 30.8767 8 27.6406 8Z" fill="url(#paint1_radial_602_404)"/>
<path d="M21.0009 10.7344C18.3487 10.7344 18.0158 10.746 16.9742 10.7934C15.9346 10.841 15.2249 11.0056 14.604 11.2471C13.9616 11.4965 13.4168 11.8302 12.874 12.3731C12.3308 12.916 11.9971 13.4608 11.7469 14.1029C11.5047 14.724 11.3399 15.434 11.2932 16.4731C11.2466 17.5148 11.2344 17.8479 11.2344 20.5001C11.2344 23.1523 11.2461 23.4842 11.2934 24.5258C11.3412 25.5654 11.5058 26.2751 11.7471 26.896C11.9967 27.5384 12.3304 28.0832 12.8733 28.626C13.416 29.1692 13.9608 29.5037 14.6027 29.7531C15.2241 29.9946 15.9339 30.1592 16.9733 30.2068C18.015 30.2542 18.3477 30.2658 20.9997 30.2658C23.6521 30.2658 23.984 30.2542 25.0256 30.2068C26.0652 30.1592 26.7757 29.9946 27.3971 29.7531C28.0392 29.5037 28.5832 29.1692 29.1258 28.626C29.669 28.0832 30.0026 27.5384 30.2529 26.8963C30.493 26.2751 30.6578 25.5652 30.7066 24.526C30.7534 23.4844 30.7656 23.1523 30.7656 20.5001C30.7656 17.8479 30.7534 17.515 30.7066 16.4733C30.6578 15.4337 30.493 14.7241 30.2529 14.1032C30.0026 13.4608 29.669 12.916 29.1258 12.3731C28.5826 11.83 28.0394 11.4963 27.3965 11.2472C26.7739 11.0056 26.0639 10.8409 25.0242 10.7934C23.9825 10.746 23.6509 10.7344 20.9979 10.7344H21.0009ZM20.1248 12.4942C20.3849 12.4938 20.675 12.4942 21.0009 12.4942C23.6084 12.4942 23.9174 12.5036 24.9471 12.5504C25.8992 12.5939 26.416 12.753 26.7603 12.8867C27.216 13.0637 27.5409 13.2753 27.8825 13.6172C28.2243 13.959 28.4358 14.2845 28.6133 14.7402C28.747 15.084 28.9062 15.6008 28.9496 16.5529C28.9964 17.5824 29.0065 17.8916 29.0065 20.4979C29.0065 23.1041 28.9964 23.4134 28.9496 24.4428C28.9061 25.3949 28.747 25.9117 28.6133 26.2556C28.4363 26.7113 28.2243 27.0358 27.8825 27.3774C27.5407 27.7192 27.2162 27.9308 26.7603 28.1078C26.4164 28.2421 25.8992 28.4008 24.9471 28.4443C23.9176 28.4911 23.6084 28.5013 21.0009 28.5013C18.3933 28.5013 18.0842 28.4911 17.0548 28.4443C16.1026 28.4004 15.5858 28.2413 15.2413 28.1076C14.7856 27.9306 14.4601 27.719 14.1183 27.3772C13.7765 27.0354 13.5649 26.7107 13.3875 26.2548C13.2538 25.9109 13.0945 25.3941 13.0512 24.442C13.0044 23.4125 12.995 23.1033 12.995 20.4954C12.995 17.8876 13.0044 17.58 13.0512 16.5505C13.0947 15.5983 13.2538 15.0815 13.3875 14.7373C13.5646 14.2815 13.7765 13.9561 14.1184 13.6143C14.4602 13.2725 14.7856 13.0608 15.2414 12.8835C15.5856 12.7492 16.1026 12.5905 17.0548 12.5468C17.9557 12.5061 18.3048 12.4938 20.1248 12.4918V12.4942ZM26.2138 14.1157C25.5668 14.1157 25.0419 14.6401 25.0419 15.2872C25.0419 15.9342 25.5668 16.4591 26.2138 16.4591C26.8607 16.4591 27.3856 15.9342 27.3856 15.2872C27.3856 14.6402 26.8607 14.1153 26.2138 14.1153V14.1157ZM21.0009 15.485C18.2313 15.485 15.9858 17.7305 15.9858 20.5001C15.9858 23.2697 18.2313 25.5142 21.0009 25.5142C23.7705 25.5142 26.0152 23.2697 26.0152 20.5001C26.0152 17.7306 23.7703 15.485 21.0007 15.485H21.0009ZM21.0009 17.2448C22.7986 17.2448 24.2562 18.7021 24.2562 20.5001C24.2562 22.2979 22.7986 23.7554 21.0009 23.7554C19.203 23.7554 17.7457 22.2979 17.7457 20.5001C17.7457 18.7021 19.203 17.2448 21.0009 17.2448Z" fill="white"/>
</g>
<defs>
<radialGradient id="paint0_radial_602_404" cx="0" cy="0" r="1" gradientUnits="userSpaceOnUse" gradientTransform="translate(15.1406 34.9255) rotate(-90) scale(24.7769 23.0444)">
<stop stop-color="#FFDD55"/>
<stop offset="0.1" stop-color="#FFDD55"/>
<stop offset="0.5" stop-color="#FF543E"/>
<stop offset="1" stop-color="#C837AB"/>
</radialGradient>
<radialGradient id="paint1_radial_602_404" cx="0" cy="0" r="1" gradientUnits="userSpaceOnUse" gradientTransform="translate(4.3124 9.80088) rotate(78.681) scale(11.0754 45.6531)">
<stop stop-color="#3771C8"/>
<stop offset="0.128" stop-color="#3771C8"/>
<stop offset="1" stop-color="#6600FF" stop-opacity="0"/>
</radialGradient>
<clipPath id="clip0_602_404">
<rect width="25" height="25" fill="white" transform="translate(8.5 8)"/>
</clipPath>
</defs>
</svg>
