<svg width="42" height="41" viewBox="0 0 42 41" fill="none" xmlns="http://www.w3.org/2000/svg">
<rect x="0.5" width="41" height="41" rx="13" fill="white" fill-opacity="0.1"/>
<g clip-path="url(#clip0_602_410)">
<path d="M21 8C17.6855 8 14.5039 9.31777 12.1621 11.6611C9.8179 14.0054 8.50065 17.1847 8.5 20.5C8.5 23.8139 9.81836 26.9955 12.1621 29.3389C14.5039 31.6822 17.6855 33 21 33C24.3145 33 27.4961 31.6822 29.8379 29.3389C32.1816 26.9955 33.5 23.8139 33.5 20.5C33.5 17.1861 32.1816 14.0045 29.8379 11.6611C27.4961 9.31777 24.3145 8 21 8Z" fill="url(#paint0_linear_602_410)"/>
<path d="M14.1586 20.368C17.8031 18.7805 20.2328 17.7339 21.4477 17.2282C24.9203 15.7843 25.641 15.5335 26.1117 15.525C26.2153 15.5233 26.4457 15.5489 26.5961 15.6705C26.7211 15.773 26.7563 15.9117 26.7739 16.0091C26.7895 16.1063 26.811 16.328 26.7934 16.5011C26.6059 18.4776 25.7914 23.2741 25.3774 25.488C25.2035 26.4247 24.8578 26.7387 24.5239 26.7694C23.7973 26.8362 23.2465 26.2897 22.5434 25.829C21.4438 25.1077 20.8227 24.6589 19.7543 23.9552C18.5199 23.1419 19.3207 22.6948 20.0239 21.9643C20.2074 21.7731 23.4067 18.8639 23.4672 18.6001C23.475 18.5671 23.4828 18.444 23.4086 18.3792C23.3364 18.3141 23.2289 18.3364 23.1508 18.354C23.0395 18.379 21.2836 19.5407 17.8774 21.8389C17.3793 22.1815 16.9281 22.3485 16.5219 22.3397C16.0766 22.3302 15.2172 22.0874 14.5785 21.88C13.7973 21.6255 13.1742 21.4909 13.2289 21.0587C13.2563 20.8337 13.5668 20.6034 14.1586 20.368Z" fill="white"/>
</g>
<defs>
<linearGradient id="paint0_linear_602_410" x1="1258.5" y1="8" x2="1258.5" y2="2508" gradientUnits="userSpaceOnUse">
<stop stop-color="#2AABEE"/>
<stop offset="1" stop-color="#229ED9"/>
</linearGradient>
<clipPath id="clip0_602_410">
<rect width="25" height="25" fill="white" transform="translate(8.5 8)"/>
</clipPath>
</defs>
</svg>
